# Blender 5.1.1
# www.blender.org
o Icosphere
v 0.000000 -1.000000 0.000000
v 0.723607 -0.447220 0.525725
v -0.276388 -0.447220 0.850649
v -0.894426 -0.447216 0.000000
v -0.276388 -0.447220 -0.850649
v 0.723607 -0.447220 -0.525725
v 0.276388 0.447220 0.850649
v -0.723607 0.447220 0.525725
v -0.723607 0.447220 -0.525725
v 0.276388 0.447220 -0.850649
v 0.894426 0.447216 0.000000
v 0.000000 1.000000 0.000000
v -0.232822 -0.657519 0.716563
v -0.162456 -0.850654 0.499995
v -0.077607 -0.967950 0.238853
v 0.203181 -0.967950 0.147618
v 0.425323 -0.850654 0.309011
v 0.609547 -0.657519 0.442856
v 0.531941 -0.502302 0.681712
v 0.262869 -0.525738 0.809012
v -0.029639 -0.502302 0.864184
v 0.812729 -0.502301 -0.295238
v 0.850648 -0.525736 0.000000
v 0.812729 -0.502301 0.295238
v 0.203181 -0.967950 -0.147618
v 0.425323 -0.850654 -0.309011
v 0.609547 -0.657519 -0.442856
v -0.753442 -0.657515 0.000000
v -0.525730 -0.850652 0.000000
v -0.251147 -0.967949 0.000000
v -0.483971 -0.502302 0.716565
v -0.688189 -0.525736 0.499997
v -0.831051 -0.502299 0.238853
v -0.232822 -0.657519 -0.716563
v -0.162456 -0.850654 -0.499995
v -0.077607 -0.967950 -0.238853
v -0.831051 -0.502299 -0.238853
v -0.688189 -0.525736 -0.499997
v -0.483971 -0.502302 -0.716565
v -0.029639 -0.502302 -0.864184
v 0.262869 -0.525738 -0.809012
v 0.531941 -0.502302 -0.681712
v 0.956626 0.251149 0.147618
v 0.951058 -0.000000 0.309013
v 0.860698 -0.251151 0.442858
v 0.860698 -0.251151 -0.442858
v 0.951058 0.000000 -0.309013
v 0.956626 0.251149 -0.147618
v 0.155215 0.251152 0.955422
v 0.000000 -0.000000 1.000000
v -0.155215 -0.251152 0.955422
v 0.687159 -0.251152 0.681715
v 0.587786 0.000000 0.809017
v 0.436007 0.251152 0.864188
v -0.860698 0.251151 0.442858
v -0.951058 -0.000000 0.309013
v -0.956626 -0.251149 0.147618
v -0.436007 -0.251152 0.864188
v -0.587786 0.000000 0.809017
v -0.687159 0.251152 0.681715
v -0.687159 0.251152 -0.681715
v -0.587786 -0.000000 -0.809017
v -0.436007 -0.251152 -0.864188
v -0.956626 -0.251149 -0.147618
v -0.951058 0.000000 -0.309013
v -0.860698 0.251151 -0.442858
v 0.436007 0.251152 -0.864188
v 0.587786 -0.000000 -0.809017
v 0.687159 -0.251152 -0.681715
v -0.155215 -0.251152 -0.955422
v 0.000000 0.000000 -1.000000
v 0.155215 0.251152 -0.955422
v 0.831051 0.502299 0.238853
v 0.688189 0.525736 0.499997
v 0.483971 0.502302 0.716565
v 0.029639 0.502302 0.864184
v -0.262869 0.525738 0.809012
v -0.531941 0.502302 0.681712
v -0.812729 0.502301 0.295238
v -0.850648 0.525736 0.000000
v -0.812729 0.502301 -0.295238
v -0.531941 0.502302 -0.681712
v -0.262869 0.525738 -0.809012
v 0.029639 0.502302 -0.864184
v 0.483971 0.502302 -0.716565
v 0.688189 0.525736 -0.499997
v 0.831051 0.502299 -0.238853
v 0.077607 0.967950 0.238853
v 0.162456 0.850654 0.499995
v 0.232822 0.657519 0.716563
v 0.753442 0.657515 0.000000
v 0.525730 0.850652 0.000000
v 0.251147 0.967949 0.000000
v -0.203181 0.967950 0.147618
v -0.425323 0.850654 0.309011
v -0.609547 0.657519 0.442856
v -0.203181 0.967950 -0.147618
v -0.425323 0.850654 -0.309011
v -0.609547 0.657519 -0.442856
v 0.077607 0.967950 -0.238853
v 0.162456 0.850654 -0.499995
v 0.232822 0.657519 -0.716563
v 0.361800 0.894429 -0.262863
v 0.638194 0.723610 -0.262864
v 0.447209 0.723612 -0.525728
v -0.138197 0.894430 -0.425319
v -0.052790 0.723612 -0.688185
v -0.361804 0.723612 -0.587778
v -0.447210 0.894429 0.000000
v -0.670817 0.723611 -0.162457
v -0.670817 0.723611 0.162457
v -0.138197 0.894430 0.425319
v -0.361804 0.723612 0.587778
v -0.052790 0.723612 0.688185
v 0.361800 0.894429 0.262863
v 0.447209 0.723612 0.525728
v 0.638194 0.723610 0.262864
v 0.861804 0.276396 -0.425322
v 0.809019 0.000000 -0.587782
v 0.670821 0.276397 -0.688189
v -0.138199 0.276397 -0.951055
v -0.309016 -0.000000 -0.951057
v -0.447215 0.276397 -0.850649
v -0.947213 0.276396 -0.162458
v -1.000000 0.000001 0.000000
v -0.947213 0.276397 0.162458
v -0.447216 0.276397 0.850648
v -0.309017 -0.000001 0.951056
v -0.138199 0.276397 0.951055
v 0.670820 0.276396 0.688190
v 0.809019 -0.000002 0.587783
v 0.861804 0.276394 0.425323
v 0.309017 -0.000000 -0.951056
v 0.447216 -0.276398 -0.850648
v 0.138199 -0.276398 -0.951055
v -0.809018 -0.000000 -0.587783
v -0.670819 -0.276397 -0.688191
v -0.861803 -0.276396 -0.425324
v -0.809018 0.000000 0.587783
v -0.861803 -0.276396 0.425324
v -0.670819 -0.276397 0.688191
v 0.309017 0.000000 0.951056
v 0.138199 -0.276398 0.951055
v 0.447216 -0.276398 0.850648
v 1.000000 0.000000 0.000000
v 0.947213 -0.276396 0.162458
v 0.947213 -0.276396 -0.162458
v 0.361803 -0.723612 -0.587779
v 0.138197 -0.894429 -0.425321
v 0.052789 -0.723611 -0.688186
v -0.447211 -0.723612 -0.525727
v -0.361801 -0.894429 -0.262863
v -0.638195 -0.723609 -0.262863
v -0.638195 -0.723609 0.262864
v -0.361801 -0.894428 0.262864
v -0.447211 -0.723610 0.525729
v 0.670817 -0.723611 -0.162457
v 0.670818 -0.723610 0.162458
v 0.447211 -0.894428 0.000001
v 0.052790 -0.723612 0.688185
v 0.138199 -0.894429 0.425321
v 0.361805 -0.723611 0.587779
vn 0.0482 -0.9878 0.1482
vn 0.7230 -0.5545 0.4121
vn -0.1261 -0.9878 0.0916
vn -0.1261 -0.9878 -0.0916
vn 0.0482 -0.9878 -0.1482
vn 0.8193 -0.3987 0.4121
vn -0.1387 -0.3987 0.9065
vn -0.9050 -0.3987 0.1482
vn -0.4206 -0.3987 -0.8149
vn 0.6451 -0.3987 -0.6519
vn 0.7711 -0.3024 0.5603
vn -0.2945 -0.3024 0.9065
vn -0.9532 -0.3024 -0.0000
vn -0.2945 -0.3024 -0.9065
vn 0.7711 -0.3024 -0.5603
vn 0.3427 0.5545 0.7583
vn -0.6153 0.5545 0.5603
vn -0.7230 0.5545 -0.4121
vn 0.1685 0.5545 -0.8149
vn 0.8271 0.5545 -0.0916
vn 0.1261 0.9878 -0.0916
vn 0.3912 0.9158 -0.0915
vn 0.6441 0.7594 -0.0915
vn 0.2334 0.9575 -0.1696
vn 0.2079 0.9158 -0.3438
vn 0.5168 0.8363 -0.1830
vn 0.4911 0.7947 -0.3568
vn 0.3338 0.8363 -0.4350
vn 0.2860 0.7594 -0.5843
vn 0.7520 0.6369 -0.1696
vn 0.7261 0.5955 -0.3438
vn 0.5987 0.6726 -0.4350
vn 0.5513 0.5955 -0.5843
vn 0.3936 0.6369 -0.6628
vn 0.3427 0.5545 -0.7583
vn -0.0482 0.9878 -0.1482
vn 0.0339 0.9158 -0.4003
vn 0.1121 0.7594 -0.6409
vn -0.0891 0.9575 -0.2743
vn -0.2627 0.9158 -0.3039
vn -0.0144 0.8363 -0.5481
vn -0.1876 0.7947 -0.5773
vn -0.3105 0.8363 -0.4519
vn -0.4674 0.7594 -0.4526
vn 0.0711 0.6369 -0.7676
vn -0.1026 0.5955 -0.7968
vn -0.2287 0.6726 -0.7038
vn -0.3854 0.5955 -0.7049
vn -0.5087 0.6369 -0.5792
vn -0.6153 0.5545 -0.5603
vn -0.1558 0.9878 -0.0000
vn -0.3702 0.9158 -0.1560
vn -0.5749 0.7594 -0.3046
vn -0.2885 0.9575 -0.0000
vn -0.3702 0.9158 0.1560
vn -0.5257 0.8363 -0.1557
vn -0.6071 0.7947 -0.0000
vn -0.5257 0.8363 0.1557
vn -0.5749 0.7594 0.3046
vn -0.7081 0.6369 -0.3049
vn -0.7895 0.5955 -0.1487
vn -0.7400 0.6726 -0.0000
vn -0.7895 0.5955 0.1487
vn -0.7081 0.6369 0.3049
vn -0.7230 0.5545 0.4121
vn -0.0482 0.9878 0.1482
vn -0.2627 0.9158 0.3039
vn -0.4674 0.7594 0.4526
vn -0.0891 0.9575 0.2743
vn 0.0339 0.9158 0.4003
vn -0.3105 0.8363 0.4519
vn -0.1876 0.7947 0.5773
vn -0.0144 0.8363 0.5481
vn 0.1121 0.7594 0.6409
vn -0.5087 0.6369 0.5792
vn -0.3854 0.5955 0.7049
vn -0.2287 0.6726 0.7038
vn -0.1026 0.5955 0.7968
vn 0.0711 0.6369 0.7676
vn 0.1685 0.5545 0.8149
vn 0.1261 0.9878 0.0916
vn 0.2079 0.9158 0.3438
vn 0.2860 0.7594 0.5843
vn 0.2334 0.9575 0.1696
vn 0.3912 0.9158 0.0915
vn 0.3338 0.8363 0.4350
vn 0.4911 0.7947 0.3568
vn 0.5168 0.8363 0.1830
vn 0.6441 0.7594 0.0915
vn 0.3936 0.6369 0.6628
vn 0.5513 0.5955 0.5843
vn 0.5987 0.6726 0.4350
vn 0.7261 0.5955 0.3438
vn 0.7520 0.6369 0.1696
vn 0.8271 0.5545 0.0916
vn 0.9050 0.3987 -0.1482
vn 0.9366 0.1745 -0.3039
vn 0.8883 -0.0784 -0.4526
vn 0.8963 0.3485 -0.2743
vn 0.8039 0.4399 -0.4003
vn 0.8869 0.0962 -0.4519
vn 0.7947 0.1876 -0.5773
vn 0.7544 0.3611 -0.5481
vn 0.6291 0.4399 -0.6409
vn 0.7972 -0.1702 -0.5792
vn 0.7049 -0.0784 -0.7049
vn 0.7038 0.0962 -0.7038
vn 0.5785 0.1745 -0.7968
vn 0.5379 0.3485 -0.7676
vn 0.4206 0.3987 -0.8149
vn 0.1387 0.3987 -0.9065
vn 0.0004 0.1745 -0.9846
vn -0.1560 -0.0784 -0.9846
vn 0.0160 0.3485 -0.9372
vn -0.1323 0.4399 -0.8883
vn -0.1557 0.0962 -0.9831
vn -0.3035 0.1876 -0.9342
vn -0.2882 0.3611 -0.8869
vn -0.4151 0.4399 -0.7964
vn -0.3045 -0.1702 -0.9372
vn -0.4526 -0.0784 -0.8883
vn -0.4519 0.0962 -0.8869
vn -0.5791 0.1745 -0.7964
vn -0.5638 0.3485 -0.7488
vn -0.6451 0.3987 -0.6519
vn -0.8193 0.3987 -0.4121
vn -0.9363 0.1745 -0.3046
vn -0.9846 -0.0784 -0.1560
vn -0.8864 0.3485 -0.3049
vn -0.8857 0.4399 -0.1487
vn -0.9831 0.0962 -0.1557
vn -0.9822 0.1876 -0.0000
vn -0.9325 0.3611 -0.0000
vn -0.8857 0.4399 0.1487
vn -0.9854 -0.1702 -0.0000
vn -0.9846 -0.0784 0.1560
vn -0.9831 0.0962 0.1557
vn -0.9363 0.1745 0.3046
vn -0.8864 0.3485 0.3049
vn -0.8193 0.3987 0.4121
vn -0.6451 0.3987 0.6519
vn -0.5791 0.1745 0.7964
vn -0.4526 -0.0784 0.8883
vn -0.5638 0.3485 0.7488
vn -0.4151 0.4399 0.7964
vn -0.4519 0.0962 0.8869
vn -0.3035 0.1876 0.9342
vn -0.2882 0.3611 0.8869
vn -0.1323 0.4399 0.8883
vn -0.3045 -0.1702 0.9372
vn -0.1560 -0.0784 0.9846
vn -0.1557 0.0962 0.9831
vn 0.0004 0.1745 0.9846
vn 0.0160 0.3485 0.9372
vn 0.1387 0.3987 0.9065
vn 0.4206 0.3987 0.8149
vn 0.5785 0.1745 0.7968
vn 0.7049 -0.0784 0.7049
vn 0.5379 0.3485 0.7676
vn 0.6291 0.4399 0.6409
vn 0.7038 0.0962 0.7038
vn 0.7947 0.1876 0.5773
vn 0.7544 0.3611 0.5481
vn 0.8039 0.4399 0.4003
vn 0.7972 -0.1702 0.5792
vn 0.8883 -0.0784 0.4526
vn 0.8869 0.0962 0.4519
vn 0.9366 0.1745 0.3039
vn 0.8963 0.3485 0.2744
vn 0.9050 0.3987 0.1482
vn 0.2945 0.3024 -0.9065
vn 0.4526 0.0784 -0.8883
vn 0.5791 -0.1745 -0.7964
vn 0.3045 0.1702 -0.9372
vn 0.1560 0.0784 -0.9846
vn 0.4519 -0.0962 -0.8869
vn 0.3035 -0.1876 -0.9342
vn 0.1557 -0.0962 -0.9831
vn -0.0004 -0.1745 -0.9846
vn 0.5638 -0.3485 -0.7488
vn 0.4151 -0.4399 -0.7964
vn 0.2882 -0.3611 -0.8869
vn 0.1323 -0.4399 -0.8883
vn -0.0160 -0.3485 -0.9372
vn -0.1387 -0.3987 -0.9065
vn -0.7711 0.3024 -0.5603
vn -0.7049 0.0784 -0.7049
vn -0.5785 -0.1745 -0.7968
vn -0.7972 0.1702 -0.5792
vn -0.8883 0.0784 -0.4526
vn -0.7038 -0.0962 -0.7038
vn -0.7947 -0.1876 -0.5774
vn -0.8869 -0.0962 -0.4519
vn -0.9366 -0.1745 -0.3039
vn -0.5379 -0.3485 -0.7676
vn -0.6291 -0.4399 -0.6409
vn -0.7544 -0.3611 -0.5481
vn -0.8039 -0.4399 -0.4003
vn -0.8963 -0.3485 -0.2744
vn -0.9050 -0.3987 -0.1482
vn -0.7711 0.3024 0.5603
vn -0.8883 0.0784 0.4526
vn -0.9366 -0.1745 0.3039
vn -0.7972 0.1702 0.5792
vn -0.7049 0.0784 0.7049
vn -0.8869 -0.0962 0.4519
vn -0.7947 -0.1876 0.5774
vn -0.7038 -0.0962 0.7038
vn -0.5785 -0.1745 0.7968
vn -0.8963 -0.3485 0.2744
vn -0.8039 -0.4399 0.4003
vn -0.7544 -0.3611 0.5481
vn -0.6291 -0.4399 0.6409
vn -0.5379 -0.3485 0.7676
vn -0.4206 -0.3987 0.8149
vn 0.2945 0.3024 0.9065
vn 0.1560 0.0784 0.9846
vn -0.0004 -0.1745 0.9846
vn 0.3045 0.1702 0.9372
vn 0.4526 0.0784 0.8883
vn 0.1557 -0.0962 0.9831
vn 0.3035 -0.1876 0.9342
vn 0.4519 -0.0962 0.8869
vn 0.5791 -0.1745 0.7964
vn -0.0160 -0.3485 0.9372
vn 0.1323 -0.4399 0.8883
vn 0.2882 -0.3611 0.8869
vn 0.4151 -0.4399 0.7964
vn 0.5638 -0.3485 0.7488
vn 0.6451 -0.3987 0.6519
vn 0.9532 0.3024 -0.0000
vn 0.9846 0.0784 0.1560
vn 0.9363 -0.1745 0.3046
vn 0.9854 0.1702 -0.0000
vn 0.9846 0.0784 -0.1560
vn 0.9831 -0.0962 0.1557
vn 0.9822 -0.1876 -0.0000
vn 0.9831 -0.0962 -0.1557
vn 0.9363 -0.1745 -0.3046
vn 0.8864 -0.3485 0.3049
vn 0.8857 -0.4399 0.1487
vn 0.9325 -0.3611 -0.0000
vn 0.8857 -0.4399 -0.1487
vn 0.8864 -0.3485 -0.3049
vn 0.8193 -0.3987 -0.4121
vn 0.6153 -0.5545 -0.5603
vn 0.4674 -0.7594 -0.4526
vn 0.2627 -0.9158 -0.3039
vn 0.5087 -0.6369 -0.5792
vn 0.3854 -0.5955 -0.7049
vn 0.3105 -0.8363 -0.4519
vn 0.1876 -0.7947 -0.5773
vn 0.2287 -0.6726 -0.7038
vn 0.1026 -0.5955 -0.7968
vn 0.0891 -0.9575 -0.2744
vn -0.0339 -0.9158 -0.4003
vn 0.0144 -0.8363 -0.5481
vn -0.1121 -0.7594 -0.6409
vn -0.0711 -0.6369 -0.7676
vn -0.1685 -0.5545 -0.8149
vn -0.3427 -0.5545 -0.7583
vn -0.2860 -0.7594 -0.5843
vn -0.2079 -0.9158 -0.3438
vn -0.3936 -0.6369 -0.6628
vn -0.5513 -0.5955 -0.5843
vn -0.3338 -0.8363 -0.4350
vn -0.4911 -0.7947 -0.3568
vn -0.5987 -0.6726 -0.4350
vn -0.7261 -0.5955 -0.3438
vn -0.2334 -0.9575 -0.1696
vn -0.3912 -0.9158 -0.0915
vn -0.5168 -0.8363 -0.1830
vn -0.6441 -0.7594 -0.0915
vn -0.7520 -0.6369 -0.1696
vn -0.8271 -0.5545 -0.0916
vn -0.8271 -0.5545 0.0916
vn -0.6441 -0.7594 0.0915
vn -0.3912 -0.9158 0.0915
vn -0.7520 -0.6369 0.1696
vn -0.7261 -0.5955 0.3438
vn -0.5168 -0.8363 0.1830
vn -0.4911 -0.7947 0.3568
vn -0.5987 -0.6726 0.4350
vn -0.5513 -0.5955 0.5843
vn -0.2334 -0.9575 0.1696
vn -0.2079 -0.9158 0.3438
vn -0.3338 -0.8363 0.4350
vn -0.2860 -0.7594 0.5843
vn -0.3936 -0.6369 0.6628
vn -0.3427 -0.5545 0.7583
vn 0.7230 -0.5545 -0.4121
vn 0.7895 -0.5955 -0.1487
vn 0.7895 -0.5955 0.1487
vn 0.7081 -0.6369 -0.3049
vn 0.5749 -0.7594 -0.3046
vn 0.7400 -0.6726 -0.0000
vn 0.6071 -0.7947 -0.0000
vn 0.5257 -0.8363 -0.1557
vn 0.3702 -0.9158 -0.1559
vn 0.7081 -0.6369 0.3049
vn 0.5749 -0.7594 0.3046
vn 0.5257 -0.8363 0.1557
vn 0.3702 -0.9158 0.1560
vn 0.2885 -0.9575 -0.0000
vn 0.1558 -0.9878 -0.0000
vn -0.1685 -0.5545 0.8149
vn -0.1121 -0.7594 0.6409
vn -0.0339 -0.9158 0.4003
vn -0.0711 -0.6369 0.7676
vn 0.1026 -0.5955 0.7968
vn 0.0144 -0.8363 0.5481
vn 0.1876 -0.7947 0.5773
vn 0.2287 -0.6726 0.7038
vn 0.3854 -0.5955 0.7049
vn 0.0891 -0.9575 0.2743
vn 0.2627 -0.9158 0.3039
vn 0.3105 -0.8363 0.4519
vn 0.4674 -0.7594 0.4526
vn 0.5087 -0.6369 0.5792
vn 0.6153 -0.5545 0.5603
vt 0.749958 0.499823
vt 0.711234 0.512220
vt 0.732097 0.429998
vt 0.578501 0.554712
vt 0.618620 0.541868
vt 0.601764 0.638791
vt 0.777643 0.444272
vt 0.784929 0.535317
vt 0.743886 0.577311
vt 0.551185 0.628114
vt 0.670874 0.190654
vt 0.638080 0.260886
vt 0.627528 0.161378
vt 0.872539 0.253858
vt 0.829009 0.213184
vt 0.873066 0.162364
vt 0.904800 0.656981
vt 0.910690 0.561610
vt 0.948472 0.629709
vt 0.723074 0.842915
vt 0.770245 0.824648
vt 0.749538 0.917556
vt 0.541094 0.502028
vt 0.684367 0.103222
vt 0.918285 0.252506
vt 0.919579 0.743576
vt 0.686462 0.897786
vt 0.329125 0.809346
vt 0.281459 0.821438
vt 0.310620 0.737002
vt 0.421497 0.445287
vt 0.412518 0.539689
vt 0.381378 0.458131
vt 0.276924 0.157085
vt 0.319039 0.203336
vt 0.270633 0.237366
vt 0.095198 0.343021
vt 0.130206 0.277204
vt 0.131430 0.379794
vt 0.127459 0.746143
vt 0.106980 0.659215
vt 0.156142 0.688589
vt 0.222355 0.555729
vt 0.215069 0.464683
vt 0.250040 0.500177
vt 0.189445 0.621764
vt 0.179201 0.522855
vt 0.140762 0.591652
vt 0.173498 0.422491
vt 0.131946 0.481490
vt 0.092873 0.550491
vt 0.089308 0.438391
vt 0.256112 0.422690
vt 0.217366 0.372440
vt 0.172773 0.320584
vt 0.263329 0.330579
vt 0.222434 0.269773
vt 0.177548 0.216774
vt 0.229753 0.175352
vt 0.288764 0.487780
vt 0.300686 0.398553
vt 0.311565 0.297708
vt 0.334795 0.473044
vt 0.351073 0.376466
vt 0.362405 0.274711
vt 0.398234 0.361208
vt 0.267901 0.570003
vt 0.314016 0.565107
vt 0.365332 0.554635
vt 0.289133 0.653006
vt 0.340089 0.654122
vt 0.391978 0.644232
vt 0.361918 0.739114
vt 0.238933 0.641930
vt 0.259770 0.736303
vt 0.204661 0.719032
vt 0.225398 0.814675
vt 0.170990 0.786817
vt 0.081714 0.747496
vt 0.024640 0.730213
vt 0.056573 0.632072
vt 0.710765 1.000000
vt 0.635208 0.950898
vt 0.000542 0.580049
vt 0.045655 0.495647
vt 0.790211 0.999481
vt -0.000000 0.422343
vt 0.051526 0.370293
vt 0.080418 0.256425
vt 0.071000 0.142523
vt 0.127537 0.172936
vt 0.975695 0.728934
vt 0.928998 0.857479
vt 0.134960 0.050285
vt 0.189036 0.110012
vt 0.999998 0.577659
vt 0.209786 0.000520
vt 0.250460 0.082444
vt 0.313536 0.102213
vt 0.364789 0.049101
vt 0.367797 0.166038
vt 0.928663 0.141244
vt 0.975359 0.269789
vt 0.428415 0.142258
vt 0.416723 0.263572
vt 0.864239 0.048273
vt 0.475201 0.269204
vt 0.448813 0.371884
vt 0.458904 0.497971
vt 0.499999 0.579050
vt 0.445321 0.620907
vt 0.634666 0.049100
vt 0.710224 -0.000000
vt 0.475362 0.728863
vt 0.414061 0.744111
vt 0.570546 0.142913
vt 0.429452 0.857086
vt 0.372471 0.838621
vt 0.315631 0.896778
vt 0.289775 1.000000
vt 0.252974 0.908932
vt 0.499999 0.579841
vt 0.499999 0.420948
vt 0.210921 0.999432
vt 0.184727 0.887542
vt 0.524796 0.730795
vt 0.135761 0.951729
vt 0.126932 0.837638
vt 0.024302 0.271069
vt 0.810961 0.889989
vt 0.865037 0.949716
vt 0.872460 0.827065
vt 0.822449 0.783227
vt 0.869791 0.722797
vt 0.289231 0.000000
vt 0.954343 0.504356
vt 0.999456 0.419954
vt 0.943426 0.367931
vt 0.907125 0.449511
vt 0.893018 0.340787
vt 0.499999 0.420158
vt 0.815272 0.112459
vt 0.789078 0.000569
vt 0.747024 0.091069
vt 0.774601 0.185326
vt 0.718540 0.178562
vt 0.365333 0.950900
vt 0.585938 0.255888
vt 0.524637 0.271136
vt 0.554677 0.379092
vt 0.608020 0.355767
vt 0.587480 0.460310
vt 0.071336 0.858757
vt 0.583274 0.736428
vt 0.571582 0.857741
vt 0.632200 0.833961
vt 0.637593 0.725289
vt 0.680958 0.796664
vt 0.729364 0.762634
vt 0.736668 0.669421
vt 0.777564 0.730227
vt 0.782632 0.627561
vt 0.827224 0.679417
vt 0.826499 0.577510
vt 0.868568 0.620207
vt 0.868052 0.518511
vt 0.820798 0.477146
vt 0.859236 0.408349
vt 0.810553 0.378237
vt 0.843856 0.311412
vt 0.795338 0.280968
vt 0.761065 0.358070
vt 0.740228 0.263696
vt 0.710865 0.346994
vt 0.689379 0.262997
vt 0.688433 0.702291
vt 0.648925 0.623534
vt 0.699311 0.601447
vt 0.665203 0.526956
vt 0.659909 0.345878
vt 0.685982 0.434893
vt 0.634666 0.445364
s 0
f 1/1/1 16/2/1 15/3/1
f 2/4/2 18/5/2 24/6/2
f 1/1/3 15/3/3 30/7/3
f 1/1/4 30/7/4 36/8/4
f 1/1/5 36/8/5 25/9/5
f 2/4/6 24/6/6 45/10/6
f 3/11/7 21/12/7 51/13/7
f 4/14/8 33/15/8 57/16/8
f 5/17/9 39/18/9 63/19/9
f 6/20/10 42/21/10 69/22/10
f 2/4/11 45/10/11 52/23/11
f 3/11/12 51/13/12 58/24/12
f 4/14/13 57/16/13 64/25/13
f 5/17/14 63/19/14 70/26/14
f 6/20/15 69/22/15 46/27/15
f 7/28/16 75/29/16 90/30/16
f 8/31/17 78/32/17 96/33/17
f 9/34/18 81/35/18 99/36/18
f 10/37/19 84/38/19 102/39/19
f 11/40/20 87/41/20 91/42/20
f 93/43/21 100/44/21 12/45/21
f 92/46/22 103/47/22 93/43/22
f 91/42/23 104/48/23 92/46/23
f 93/43/24 103/47/24 100/44/24
f 103/47/25 101/49/25 100/44/25
f 92/46/26 104/48/26 103/47/26
f 104/48/27 105/50/27 103/47/27
f 103/47/28 105/50/28 101/49/28
f 105/50/29 102/39/29 101/49/29
f 91/42/30 87/41/30 104/48/30
f 87/41/31 86/51/31 104/48/31
f 104/48/32 86/51/32 105/50/32
f 86/51/33 85/52/33 105/50/33
f 105/50/34 85/52/34 102/39/34
f 85/52/35 10/37/35 102/39/35
f 100/44/36 97/53/36 12/45/36
f 101/49/37 106/54/37 100/44/37
f 102/39/38 107/55/38 101/49/38
f 100/44/39 106/54/39 97/53/39
f 106/54/40 98/56/40 97/53/40
f 101/49/41 107/55/41 106/54/41
f 107/55/42 108/57/42 106/54/42
f 106/54/43 108/57/43 98/56/43
f 108/57/44 99/36/44 98/56/44
f 102/39/45 84/38/45 107/55/45
f 84/38/46 83/58/46 107/55/46
f 107/55/47 83/58/47 108/57/47
f 83/58/48 82/59/48 108/57/48
f 108/57/49 82/59/49 99/36/49
f 82/59/50 9/34/50 99/36/50
f 97/53/51 94/60/51 12/45/51
f 98/56/52 109/61/52 97/53/52
f 99/36/53 110/62/53 98/56/53
f 97/53/54 109/61/54 94/60/54
f 109/61/55 95/63/55 94/60/55
f 98/56/56 110/62/56 109/61/56
f 110/62/57 111/64/57 109/61/57
f 109/61/58 111/64/58 95/63/58
f 111/64/59 96/33/59 95/63/59
f 99/36/60 81/35/60 110/62/60
f 81/35/61 80/65/61 110/62/61
f 110/62/62 80/65/62 111/64/62
f 80/65/63 79/66/63 111/64/63
f 111/64/64 79/66/64 96/33/64
f 79/66/65 8/31/65 96/33/65
f 94/60/66 88/67/66 12/45/66
f 95/63/67 112/68/67 94/60/67
f 96/33/68 113/69/68 95/63/68
f 94/60/69 112/68/69 88/67/69
f 112/68/70 89/70/70 88/67/70
f 95/63/71 113/69/71 112/68/71
f 113/69/72 114/71/72 112/68/72
f 112/68/73 114/71/73 89/70/73
f 114/71/74 90/30/74 89/70/74
f 96/33/75 78/32/75 113/69/75
f 78/32/76 77/72/76 113/69/76
f 113/69/77 77/72/77 114/71/77
f 77/72/78 76/73/78 114/71/78
f 114/71/79 76/73/79 90/30/79
f 76/73/80 7/28/80 90/30/80
f 88/67/81 93/43/81 12/45/81
f 89/70/82 115/74/82 88/67/82
f 90/30/83 116/75/83 89/70/83
f 88/67/84 115/74/84 93/43/84
f 115/74/85 92/46/85 93/43/85
f 89/70/86 116/75/86 115/74/86
f 116/75/87 117/76/87 115/74/87
f 115/74/88 117/76/88 92/46/88
f 117/76/89 91/42/89 92/46/89
f 90/30/90 75/29/90 116/75/90
f 75/29/91 74/77/91 116/75/91
f 116/75/92 74/77/92 117/76/92
f 74/77/93 73/78/93 117/76/93
f 117/76/94 73/78/94 91/42/94
f 73/78/95 11/40/95 91/42/95
f 48/79/96 87/41/96 11/40/96
f 47/80/97 118/81/97 48/79/97
f 46/27/98 119/82/98 47/83/98
f 48/79/99 118/81/99 87/41/99
f 118/81/100 86/51/100 87/41/100
f 47/80/101 119/84/101 118/81/101
f 119/84/102 120/85/102 118/81/102
f 118/81/103 120/85/103 86/51/103
f 120/85/104 85/52/104 86/51/104
f 46/27/105 69/22/105 119/82/105
f 69/22/106 68/86/106 119/82/106
f 119/84/107 68/87/107 120/85/107
f 68/87/108 67/88/108 120/85/108
f 120/85/109 67/88/109 85/52/109
f 67/88/110 10/37/110 85/52/110
f 72/89/111 84/38/111 10/37/111
f 71/90/112 121/91/112 72/89/112
f 70/26/113 122/92/113 71/93/113
f 72/89/114 121/91/114 84/38/114
f 121/91/115 83/58/115 84/38/115
f 71/90/116 122/94/116 121/91/116
f 122/94/117 123/95/117 121/91/117
f 121/91/118 123/95/118 83/58/118
f 123/95/119 82/59/119 83/58/119
f 70/26/120 63/19/120 122/92/120
f 63/19/121 62/96/121 122/92/121
f 122/94/122 62/97/122 123/95/122
f 62/97/123 61/98/123 123/95/123
f 123/95/124 61/98/124 82/59/124
f 61/98/125 9/34/125 82/59/125
f 66/99/126 81/35/126 9/34/126
f 65/100/127 124/101/127 66/99/127
f 64/25/128 125/102/128 65/103/128
f 66/99/129 124/101/129 81/35/129
f 124/101/130 80/65/130 81/35/130
f 65/100/131 125/104/131 124/101/131
f 125/104/132 126/105/132 124/101/132
f 124/101/133 126/105/133 80/65/133
f 126/105/134 79/66/134 80/65/134
f 64/25/135 57/16/135 125/102/135
f 57/16/136 56/106/136 125/102/136
f 125/104/137 56/107/137 126/105/137
f 56/107/138 55/108/138 126/105/138
f 126/105/139 55/108/139 79/66/139
f 55/108/140 8/31/140 79/66/140
f 60/109/141 78/32/141 8/31/141
f 59/110/142 127/111/142 60/109/142
f 58/24/143 128/112/143 59/113/143
f 60/109/144 127/111/144 78/32/144
f 127/111/145 77/72/145 78/32/145
f 59/110/146 128/114/146 127/111/146
f 128/114/147 129/115/147 127/111/147
f 127/111/148 129/115/148 77/72/148
f 129/115/149 76/73/149 77/72/149
f 58/24/150 51/13/150 128/112/150
f 51/13/151 50/116/151 128/112/151
f 128/114/152 50/117/152 129/115/152
f 50/117/153 49/118/153 129/115/153
f 129/115/154 49/118/154 76/73/154
f 49/118/155 7/28/155 76/73/155
f 54/119/156 75/29/156 7/28/156
f 53/120/157 130/121/157 54/119/157
f 52/23/158 131/122/158 53/123/158
f 54/119/159 130/121/159 75/29/159
f 130/121/160 74/77/160 75/29/160
f 53/120/161 131/124/161 130/121/161
f 131/124/162 132/125/162 130/121/162
f 130/121/163 132/125/163 74/77/163
f 132/125/164 73/78/164 74/77/164
f 52/23/165 45/10/165 131/122/165
f 45/10/166 44/126/166 131/122/166
f 131/124/167 44/127/167 132/125/167
f 44/127/168 43/128/168 132/125/168
f 132/125/169 43/128/169 73/78/169
f 43/128/170 11/40/170 73/78/170
f 67/88/171 72/89/171 10/37/171
f 68/87/172 133/129/172 67/88/172
f 69/22/173 134/130/173 68/86/173
f 67/88/174 133/129/174 72/89/174
f 133/129/175 71/90/175 72/89/175
f 68/86/176 134/130/176 133/131/176
f 134/130/177 135/132/177 133/131/177
f 133/131/178 135/132/178 71/93/178
f 135/132/179 70/26/179 71/93/179
f 69/22/180 42/21/180 134/130/180
f 42/21/181 41/133/181 134/130/181
f 134/130/182 41/133/182 135/132/182
f 41/133/183 40/134/183 135/132/183
f 135/132/184 40/134/184 70/26/184
f 40/134/185 5/17/185 70/26/185
f 61/98/186 66/99/186 9/34/186
f 62/97/187 136/135/187 61/98/187
f 63/19/188 137/136/188 62/96/188
f 61/98/189 136/135/189 66/99/189
f 136/135/190 65/100/190 66/99/190
f 62/96/191 137/136/191 136/137/191
f 137/136/192 138/138/192 136/137/192
f 136/137/193 138/138/193 65/103/193
f 138/138/194 64/25/194 65/103/194
f 63/19/195 39/18/195 137/136/195
f 39/18/196 38/139/196 137/136/196
f 137/136/197 38/139/197 138/138/197
f 38/139/198 37/140/198 138/138/198
f 138/138/199 37/140/199 64/25/199
f 37/140/200 4/14/200 64/25/200
f 55/108/201 60/109/201 8/31/201
f 56/107/202 139/141/202 55/108/202
f 57/16/203 140/142/203 56/106/203
f 55/108/204 139/141/204 60/109/204
f 139/141/205 59/110/205 60/109/205
f 56/106/206 140/142/206 139/143/206
f 140/142/207 141/144/207 139/143/207
f 139/143/208 141/144/208 59/113/208
f 141/144/209 58/24/209 59/113/209
f 57/16/210 33/15/210 140/142/210
f 33/15/211 32/145/211 140/142/211
f 140/142/212 32/145/212 141/144/212
f 32/145/213 31/146/213 141/144/213
f 141/144/214 31/146/214 58/24/214
f 31/146/215 3/11/215 58/24/215
f 49/118/216 54/119/216 7/28/216
f 50/117/217 142/147/217 49/118/217
f 51/13/218 143/148/218 50/116/218
f 49/118/219 142/147/219 54/119/219
f 142/147/220 53/120/220 54/119/220
f 50/116/221 143/148/221 142/149/221
f 143/148/222 144/150/222 142/149/222
f 142/149/223 144/150/223 53/123/223
f 144/150/224 52/23/224 53/123/224
f 51/13/225 21/12/225 143/148/225
f 21/12/226 20/151/226 143/148/226
f 143/148/227 20/151/227 144/150/227
f 20/151/228 19/152/228 144/150/228
f 144/150/229 19/152/229 52/23/229
f 19/152/230 2/4/230 52/23/230
f 43/128/231 48/79/231 11/40/231
f 44/127/232 145/153/232 43/128/232
f 45/10/233 146/154/233 44/126/233
f 43/128/234 145/153/234 48/79/234
f 145/153/235 47/80/235 48/79/235
f 44/126/236 146/154/236 145/155/236
f 146/154/237 147/156/237 145/155/237
f 145/155/238 147/156/238 47/83/238
f 147/156/239 46/27/239 47/83/239
f 45/10/240 24/6/240 146/154/240
f 24/6/241 23/157/241 146/154/241
f 146/154/242 23/157/242 147/156/242
f 23/157/243 22/158/243 147/156/243
f 147/156/244 22/158/244 46/27/244
f 22/158/245 6/20/245 46/27/245
f 27/159/246 42/21/246 6/20/246
f 26/160/247 148/161/247 27/159/247
f 25/9/248 149/162/248 26/160/248
f 27/159/249 148/161/249 42/21/249
f 148/161/250 41/133/250 42/21/250
f 26/160/251 149/162/251 148/161/251
f 149/162/252 150/163/252 148/161/252
f 148/161/253 150/163/253 41/133/253
f 150/163/254 40/134/254 41/133/254
f 25/9/255 36/8/255 149/162/255
f 36/8/256 35/164/256 149/162/256
f 149/162/257 35/164/257 150/163/257
f 35/164/258 34/165/258 150/163/258
f 150/163/259 34/165/259 40/134/259
f 34/165/260 5/17/260 40/134/260
f 34/165/261 39/18/261 5/17/261
f 35/164/262 151/166/262 34/165/262
f 36/8/263 152/167/263 35/164/263
f 34/165/264 151/166/264 39/18/264
f 151/166/265 38/139/265 39/18/265
f 35/164/266 152/167/266 151/166/266
f 152/167/267 153/168/267 151/166/267
f 151/166/268 153/168/268 38/139/268
f 153/168/269 37/140/269 38/139/269
f 36/8/270 30/7/270 152/167/270
f 30/7/271 29/169/271 152/167/271
f 152/167/272 29/169/272 153/168/272
f 29/169/273 28/170/273 153/168/273
f 153/168/274 28/170/274 37/140/274
f 28/170/275 4/14/275 37/140/275
f 28/170/276 33/15/276 4/14/276
f 29/169/277 154/171/277 28/170/277
f 30/7/278 155/172/278 29/169/278
f 28/170/279 154/171/279 33/15/279
f 154/171/280 32/145/280 33/15/280
f 29/169/281 155/172/281 154/171/281
f 155/172/282 156/173/282 154/171/282
f 154/171/283 156/173/283 32/145/283
f 156/173/284 31/146/284 32/145/284
f 30/7/285 15/3/285 155/172/285
f 15/3/286 14/174/286 155/172/286
f 155/172/287 14/174/287 156/173/287
f 14/174/288 13/175/288 156/173/288
f 156/173/289 13/175/289 31/146/289
f 13/175/290 3/11/290 31/146/290
f 22/158/291 27/159/291 6/20/291
f 23/157/292 157/176/292 22/158/292
f 24/6/293 158/177/293 23/157/293
f 22/158/294 157/176/294 27/159/294
f 157/176/295 26/160/295 27/159/295
f 23/157/296 158/177/296 157/176/296
f 158/177/297 159/178/297 157/176/297
f 157/176/298 159/178/298 26/160/298
f 159/178/299 25/9/299 26/160/299
f 24/6/300 18/5/300 158/177/300
f 18/5/301 17/179/301 158/177/301
f 158/177/302 17/179/302 159/178/302
f 17/179/303 16/2/303 159/178/303
f 159/178/304 16/2/304 25/9/304
f 16/2/305 1/1/305 25/9/305
f 13/175/306 21/12/306 3/11/306
f 14/174/307 160/180/307 13/175/307
f 15/3/308 161/181/308 14/174/308
f 13/175/309 160/180/309 21/12/309
f 160/180/310 20/151/310 21/12/310
f 14/174/311 161/181/311 160/180/311
f 161/181/312 162/182/312 160/180/312
f 160/180/313 162/182/313 20/151/313
f 162/182/314 19/152/314 20/151/314
f 15/3/315 16/2/315 161/181/315
f 16/2/316 17/179/316 161/181/316
f 161/181/317 17/179/317 162/182/317
f 17/179/318 18/5/318 162/182/318
f 162/182/319 18/5/319 19/152/319
f 18/5/320 2/4/320 19/152/320
